<svg xmlns="http://www.w3.org/2000/svg" width="1024" height="1024" viewBox="0 0 1024 1024">
<g>
<path d="M 602.00 653.00 L 602.00 662.00 L 590.00 662.00 L 589.96 644.75 C589.94,635.26 589.67,624.88 589.36,621.67 C589.05,618.46 589.10,613.85 589.46,611.42 L 590.12 607.00 L 601.81 607.00 C620.18,607.01 621.52,608.47 620.85,627.84 C620.55,636.31 620.16,638.30 618.25,640.87 L 616.01 643.91 L 618.00 652.20 C619.09,656.77 619.99,660.84 619.99,661.25 C620.00,661.66 617.53,662.00 614.51,662.00 C609.27,662.00 608.97,661.86 607.67,658.75 C606.92,656.96 605.99,653.70 605.60,651.50 C603.69,640.73 602.00,641.43 602.00,653.00 ZM 650.28 661.08 C648.95,661.59 643.83,662.00 638.89,662.00 C630.69,662.00 629.70,661.79 627.45,659.55 C625.35,657.44 625.00,656.16 625.00,650.55 L 625.00 644.00 L 636.89 644.00 L 637.19 648.25 C637.47,652.03 637.77,652.50 640.00,652.50 C642.33,652.50 642.52,652.12 642.79,646.96 L 643.09 641.43 L 634.29 638.39 L 625.50 635.34 L 624.63 626.92 C622.90,610.14 625.91,606.57 641.22,607.16 C649.63,607.48 650.32,607.67 652.63,610.36 C654.76,612.83 655.05,614.04 654.79,619.36 C654.53,624.97 654.29,625.53 652.12,625.84 C650.81,626.02 648.22,625.89 646.37,625.54 C643.22,624.95 643.00,624.65 643.00,620.95 C643.00,617.21 642.84,617.00 639.95,617.00 L 636.90 617.00 L 637.20 622.75 L 637.50 628.49 L 654.50 634.51 L 654.79 644.46 C655.11,655.57 654.00,659.67 650.28,661.08 ZM 689.00 653.00 L 689.00 662.00 L 659.28 662.00 L 659.50 607.50 L 688.50 607.50 L 688.50 616.50 L 671.00 617.08 L 671.00 630.00 L 685.00 630.00 L 685.00 634.39 C685.00,639.52 684.27,640.00 676.42,640.00 L 671.00 640.00 L 671.00 653.00 ZM 585.50 653.50 L 586.11 662.00 L 571.16 662.00 C560.06,662.00 556.12,661.68 555.86,660.75 C555.66,660.06 555.64,647.68 555.81,633.22 L 556.12 606.95 L 585.50 607.50 L 585.50 616.50 L 567.00 617.08 L 567.00 630.00 L 581.00 630.00 L 581.00 640.00 L 567.00 640.00 L 567.00 652.92 ZM 716.00 640.44 L 716.00 662.00 L 704.16 662.00 L 703.83 649.25 C703.51,636.81 703.41,636.30 699.65,628.50 C697.53,624.10 695.13,618.25 694.31,615.50 C693.49,612.75 692.41,610.07 691.91,609.55 C690.03,607.59 691.17,607.00 696.86,607.00 L 702.72 607.00 L 706.57 616.25 C709.11,622.33 710.56,624.81 710.82,623.50 C711.23,621.43 714.10,614.35 716.30,610.00 C717.35,607.93 718.41,607.45 722.42,607.19 C725.09,607.02 727.61,607.24 728.02,607.69 C728.43,608.14 725.89,615.69 722.38,624.47 ZM 548.35 659.55 C545.94,661.78 544.90,662.00 536.60,661.97 C523.49,661.93 521.08,660.11 521.03,650.25 L 521.00 644.00 L 532.89 644.00 L 533.19 648.25 C533.47,652.03 533.77,652.50 536.00,652.50 L 538.50 652.50 L 539.50 607.50 L 545.25 607.20 L 551.00 606.90 L 551.00 657.10 ZM 602.00 617.00 L 602.00 634.00 L 608.00 634.00 L 608.00 617.00 Z" fill="rgb(147,100,225)"/>
<path d="M 485.94 595.09 C482.73,597.34 479.52,597.56 453.75,597.23 C435.33,597.00 432.00,596.73 432.00,595.48 C432.00,594.22 435.39,594.00 455.25,594.00 C457.52,594.00 459.63,594.01 461.60,594.02 C473.72,594.10 480.53,594.15 484.32,590.78 C489.18,586.48 489.08,576.58 488.86,553.99 C488.83,551.12 488.80,548.04 488.77,544.75 C488.62,523.44 488.78,506.00 489.13,506.00 C489.47,506.00 490.37,507.46 491.13,509.25 C492.21,511.81 492.50,520.50 492.50,550.18 C492.50,586.67 492.44,587.94 490.44,590.62 C489.30,592.13 487.28,594.15 485.94,595.09 ZM 319.88 596.25 C319.95,596.66 314.15,597.00 307.00,597.00 C296.11,597.00 294.00,596.76 294.00,595.50 C294.00,594.26 295.89,594.00 305.00,594.00 L 316.00 594.00 L 316.00 568.16 L 328.93 567.83 C343.40,567.46 345.88,566.50 349.27,559.93 C350.84,556.88 351.00,553.78 350.77,531.70 C350.51,507.94 350.57,506.99 352.25,509.06 C353.81,510.99 354.00,513.91 354.00,536.36 C353.99,559.53 353.84,561.75 352.04,564.70 C348.81,570.00 345.63,571.00 332.05,571.00 L 320.00 571.00 L 319.88 583.25 C319.82,589.99 319.82,595.84 319.88,596.25 ZM 737.00 555.03 L 737.00 597.00 L 724.00 597.00 C713.11,597.00 711.00,596.76 711.00,595.50 C711.00,594.26 712.89,594.00 722.02,594.00 L 733.04 594.00 L 732.77 550.00 C732.62,525.80 732.75,506.00 733.06,506.00 C733.38,506.00 734.39,507.59 735.31,509.53 C736.81,512.67 737.00,517.75 737.00,555.03 ZM 666.95 550.50 L 650.26 596.50 L 637.32 596.78 C630.21,596.93 624.08,596.74 623.69,596.36 C621.79,594.46 623.97,594.00 634.92,594.00 L 646.84 594.00 L 648.05 590.25 C648.71,588.19 652.57,577.37 656.63,566.21 L 664.00 545.93 L 664.00 523.96 C664.00,505.11 664.21,502.00 665.50,502.00 C666.79,502.00 667.00,505.35 666.98,526.25 ZM 527.00 549.50 L 527.00 597.00 L 514.00 597.00 C503.11,597.00 501.00,596.76 501.00,595.50 C501.00,594.25 502.94,594.00 512.50,594.00 L 524.00 594.00 L 524.00 548.00 C524.00,507.78 524.19,502.00 525.50,502.00 C526.81,502.00 527.00,507.94 527.00,549.50 ZM 423.00 584.00 L 423.00 597.00 L 393.00 597.00 C367.00,597.00 363.00,596.80 363.00,595.50 C363.00,594.20 366.83,594.00 391.50,594.00 L 420.00 594.00 L 420.00 582.50 C420.00,572.94 420.25,571.00 421.50,571.00 C422.76,571.00 423.00,573.11 423.00,584.00 ZM 389.00 565.53 C389.00,567.36 388.46,568.00 386.94,568.00 C385.14,568.00 384.92,567.47 385.19,563.75 L 385.50 559.50 L 398.25 559.22 L 411.00 558.94 L 411.00 548.08 C411.00,537.42 411.42,536.00 414.61,536.00 C414.86,536.00 414.93,541.96 414.78,549.25 L 414.50 562.50 L 401.75 562.78 L 389.00 563.06 ZM 633.18 529.25 C633.37,544.24 633.47,556.63 633.40,556.78 C633.33,556.93 632.31,554.83 631.14,552.10 C629.16,547.51 629.00,545.39 629.00,524.56 C629.00,503.00 629.08,502.00 630.92,502.00 C632.75,502.00 632.85,503.19 633.18,529.25 ZM 388.65 531.00 C388.29,532.82 387.43,534.00 386.47,534.00 C385.22,534.00 384.95,533.09 385.19,529.75 L 385.50 525.50 L 420.00 524.95 L 420.00 513.48 C420.00,503.94 420.25,502.00 421.50,502.00 C422.76,502.00 423.00,504.11 423.00,515.00 L 423.00 528.00 L 389.25 528.00 ZM 599.39 555.25 C599.87,556.26 599.81,557.00 599.27,557.00 C598.74,557.00 597.55,554.41 596.61,551.25 C595.18,546.43 594.95,541.96 595.20,523.58 C595.41,507.91 595.83,501.55 596.68,501.27 C597.55,500.98 597.94,507.61 598.21,527.19 C598.41,541.66 598.94,554.29 599.39,555.25 ZM 702.00 580.00 L 702.00 597.00 L 689.00 597.00 C678.11,597.00 676.00,596.76 676.00,595.50 C676.00,594.25 677.94,594.00 687.50,594.00 L 699.00 594.00 L 699.00 577.00 L 703.50 577.00 C706.83,577.00 708.00,577.39 708.00,578.50 ZM 458.00 548.07 C458.00,565.12 457.78,568.00 456.50,568.00 C455.21,568.00 455.00,564.94 455.00,546.50 L 455.00 525.00 L 459.58 525.00 C464.63,525.00 465.50,527.24 460.67,527.82 L 458.00 528.13 ZM 617.36 592.45 L 615.81 597.00 L 602.41 597.00 C591.16,597.00 589.00,596.76 589.00,595.50 C589.00,594.25 590.95,594.00 600.52,594.00 L 612.04 594.00 L 613.13 591.25 C613.73,589.74 614.79,587.15 615.50,585.50 L 616.79 582.50 L 617.85 585.20 C618.66,587.26 618.54,588.99 617.36,592.45 ZM 701.78 539.17 C701.58,547.01 701.13,550.46 700.25,550.75 C699.29,551.07 699.00,548.10 699.00,538.08 L 699.00 525.00 L 703.50 525.00 C706.83,525.00 708.00,525.39 708.00,526.50 C708.00,527.50 707.00,528.00 705.03,528.00 L 702.07 528.00 ZM 319.80 534.74 C319.56,540.22 319.17,541.54 317.75,541.81 C316.19,542.11 316.00,541.20 316.00,533.57 L 316.00 525.00 L 320.50 525.00 C323.83,525.00 325.00,525.39 325.00,526.50 C325.00,527.43 324.06,528.00 322.55,528.00 C320.21,528.00 320.08,528.33 319.80,534.74 Z" fill="rgb(35,3,3)"/>
<path d="M 547.32 519.41 C544.75,520.28 542.27,521.00 541.82,521.00 C541.37,521.00 541.00,512.45 541.00,502.00 L 541.00 483.00 L 537.75 482.87 C535.96,482.80 475.89,482.64 404.25,482.52 L 274.00 482.29 L 274.00 492.15 C274.00,497.57 273.75,502.00 273.44,502.00 C272.80,502.00 268.92,498.83 240.93,475.42 C229.69,466.03 219.93,457.65 219.23,456.79 C218.11,455.43 218.61,455.16 223.23,454.60 C230.77,453.70 313.64,446.22 335.81,444.45 C340.39,444.08 344.60,443.27 345.18,442.64 C346.55,441.16 387.04,376.67 395.18,363.00 C407.26,342.73 415.88,329.55 416.59,330.26 C416.76,330.43 418.32,335.95 420.06,342.53 C421.80,349.12 424.30,358.55 425.63,363.50 C426.96,368.45 431.21,384.65 435.09,399.50 C438.96,414.35 442.83,428.92 443.67,431.87 L 445.21 437.25 L 458.86 436.60 C466.36,436.24 489.38,435.29 510.00,434.48 L 573.00 432.02 C587.03,431.47 623.70,430.12 654.50,429.02 C685.30,427.92 728.95,426.32 751.50,425.45 C774.05,424.59 795.34,424.02 798.82,424.19 L 805.14 424.50 L 793.82 428.67 C787.59,430.97 772.15,436.64 759.50,441.27 C746.85,445.91 721.65,455.22 703.50,461.96 C685.35,468.70 664.98,476.19 658.23,478.60 L 645.96 482.98 L 600.16 482.82 C574.96,482.74 553.78,483.02 553.08,483.45 C552.14,484.03 551.87,488.15 552.02,499.87 C552.13,508.46 552.17,516.02 552.11,516.66 C552.05,517.29 549.89,518.53 547.32,519.41 ZM 598.95 551.12 C599.01,551.36 599.06,551.54 599.12,551.68 L 600.23 554.50 L 602.04 550.50 C603.62,547.02 603.86,543.43 603.93,522.75 L 604.00 499.00 L 616.50 499.00 C623.38,499.00 629.00,499.40 629.00,499.88 C629.00,500.37 629.90,501.00 631.00,501.29 C632.73,501.74 632.97,502.50 633.05,519.59 C632.78,502.88 632.49,502.00 630.92,502.00 C629.08,502.00 629.00,503.00 629.00,524.56 C629.00,545.39 629.16,547.51 631.14,552.10 C632.31,554.83 633.33,556.93 633.40,556.78 C633.45,556.68 633.42,551.29 633.34,543.34 C633.51,548.44 633.73,551.93 633.97,552.50 C634.71,554.29 634.97,554.10 636.40,550.78 C637.72,547.71 638.00,542.86 638.00,523.03 L 638.00 499.00 L 651.00 499.00 C659.00,499.00 664.00,499.38 664.00,500.00 C664.00,500.55 664.67,501.00 665.50,501.00 C666.74,501.00 666.98,504.15 666.98,523.37 C666.97,505.04 666.73,502.00 665.50,502.00 C664.21,502.00 664.00,505.11 664.00,523.96 L 664.00 545.93 L 656.63 566.21 C652.57,577.37 648.71,588.19 648.05,590.25 L 646.84 594.00 L 634.92 594.00 C625.82,594.00 622.78,594.32 623.10,595.52 C622.86,595.32 622.61,595.10 622.35,594.86 C621.06,593.64 620.00,592.05 620.00,591.33 C620.00,588.84 618.31,589.94 617.17,593.02 L 617.36 592.45 C618.54,588.99 618.66,587.26 617.85,585.20 L 616.79 582.50 L 615.50 585.50 C614.79,587.15 613.73,589.74 613.13,591.25 L 612.04 594.00 L 600.52 594.00 C590.95,594.00 589.00,594.25 589.00,595.50 C589.00,595.86 589.18,596.14 589.71,596.36 C588.73,596.04 588.21,595.56 587.60,594.84 C586.58,593.66 581.98,582.19 577.37,569.36 L 569.00 546.03 L 569.00 499.00 L 582.00 499.00 C590.00,499.00 595.00,499.38 595.00,500.00 C595.00,500.55 595.67,501.00 596.50,501.00 C597.52,501.00 597.87,503.08 597.96,514.18 C598.06,517.67 598.14,521.97 598.21,527.19 C598.35,537.07 598.64,546.08 598.95,551.12 ZM 490.47 507.83 C489.91,506.75 489.38,506.00 489.13,506.00 C488.78,506.00 488.62,523.44 488.77,544.75 C488.80,548.04 488.83,551.12 488.86,553.99 C489.08,576.58 489.18,586.48 484.32,590.78 C480.53,594.15 473.72,594.10 461.60,594.02 L 461.57 594.02 C459.61,594.01 457.50,594.00 455.25,594.00 C435.39,594.00 432.00,594.22 432.00,595.48 C432.00,595.67 432.08,595.85 432.28,596.00 C431.72,595.79 431.33,595.55 430.99,595.26 C429.06,593.60 429.00,592.22 429.00,546.28 L 429.00 499.00 L 479.66 499.00 L 484.36 502.12 C486.41,503.47 487.94,504.42 489.09,505.70 C489.63,506.31 490.08,506.99 490.47,507.83 ZM 708.00 580.00 L 705.00 580.00 C708.00,577.39 706.83,577.00 703.50,577.00 L 699.00 577.00 L 699.00 594.00 L 687.50 594.00 C677.94,594.00 676.00,594.25 676.00,595.50 C676.00,595.67 676.04,595.82 676.13,595.95 C675.55,595.69 675.14,595.35 674.75,594.92 C673.14,593.15 673.00,589.59 673.00,550.75 C673.01,510.61 673.10,508.34 674.96,505.30 C678.52,499.46 680.61,499.00 703.75,499.00 L 724.61 499.00 L 728.84 502.11 C730.72,503.50 732.17,504.52 733.28,505.82 C734.07,506.75 734.69,507.81 735.18,509.25 C734.29,507.44 733.36,506.00 733.06,506.00 C732.75,506.00 732.62,525.80 732.77,550.00 L 733.04 594.00 L 722.02 594.00 C712.89,594.00 711.00,594.26 711.00,595.50 C711.00,595.62 711.02,595.72 711.06,595.82 C708.27,594.55 708.00,591.92 708.00,586.50 ZM 389.00 565.53 L 389.00 568.00 L 404.50 568.00 C417.61,568.00 420.00,568.23 420.00,569.50 C420.00,570.33 420.67,571.00 421.50,571.00 C420.25,571.00 420.00,572.94 420.00,582.50 L 420.00 594.00 L 391.50 594.00 C366.83,594.00 363.00,594.20 363.00,595.50 C363.00,596.79 366.97,597.00 392.68,597.00 C364.61,597.00 363.37,596.91 361.72,594.99 C360.15,593.15 360.00,589.01 360.00,545.99 L 360.00 499.00 L 390.00 499.00 C409.33,499.00 420.00,499.36 420.00,500.00 C420.00,500.55 420.67,501.00 421.50,501.00 C422.76,501.00 423.00,503.17 423.00,514.50 C422.99,504.05 422.74,502.00 421.50,502.00 C420.25,502.00 420.00,503.94 420.00,513.48 L 420.00 524.95 L 385.50 525.50 L 385.19 529.75 C384.95,533.09 385.22,534.00 386.47,534.00 C387.43,534.00 388.29,532.82 388.65,531.00 L 389.00 529.25 L 389.00 534.00 L 400.50 534.00 C407.50,534.00 412.00,534.39 412.00,535.00 C412.00,535.55 412.69,536.00 413.53,536.00 C413.63,536.00 413.73,536.01 413.82,536.04 C411.35,536.33 411.00,538.37 411.00,548.08 L 411.00 558.94 L 398.25 559.22 L 385.50 559.50 L 385.19 563.75 C384.92,567.47 385.14,568.00 386.94,568.00 C388.46,568.00 389.00,567.36 389.00,565.53 ZM 352.58 509.52 C352.48,509.36 352.37,509.21 352.25,509.06 C350.57,506.99 350.51,507.94 350.77,531.70 C351.00,553.78 350.84,556.88 349.27,559.93 C345.88,566.50 343.40,567.46 328.93,567.83 L 316.00 568.16 L 316.00 594.00 L 305.00 594.00 C295.89,594.00 294.00,594.26 294.00,595.50 C294.00,595.88 294.19,596.16 294.75,596.38 C293.71,596.04 293.16,595.53 292.47,594.75 C290.58,592.59 290.49,590.64 290.21,548.00 C290.05,523.53 290.17,502.49 290.48,501.25 L 291.04 499.00 L 341.70 499.00 L 345.88 502.03 C349.47,504.63 351.47,506.13 352.58,509.52 ZM 515.00 692.25 C515.00,693.75 513.38,692.89 507.00,688.02 C503.42,685.29 492.17,676.88 482.00,669.35 C471.83,661.81 450.23,645.71 434.00,633.57 L 404.50 611.50 L 445.44 611.24 C467.95,611.09 486.67,611.32 487.04,611.74 C488.04,612.90 515.00,690.53 515.00,692.25 ZM 247.10 665.89 C237.23,671.26 237.00,671.36 237.00,670.40 C237.00,669.60 263.56,619.66 269.40,609.50 L 273.99 601.50 L 273.99 606.25 L 274.00 611.00 L 333.00 611.00 L 333.00 585.00 L 343.00 585.00 L 343.00 611.89 L 332.75 617.63 C320.07,624.74 282.30,646.10 267.50,654.52 C261.45,657.97 252.27,663.09 247.10,665.89 ZM 527.00 549.00 C527.00,507.90 526.81,502.00 525.50,502.00 C524.19,502.00 524.00,507.78 524.00,548.00 L 524.00 594.00 L 512.50 594.00 C502.94,594.00 501.00,594.25 501.00,595.50 C501.00,594.67 500.33,594.00 499.50,594.00 C498.19,594.00 498.00,588.06 498.00,546.50 L 498.00 499.00 L 511.00 499.00 C519.00,499.00 524.00,499.38 524.00,500.00 C524.00,500.55 524.67,501.00 525.50,501.00 C526.81,501.00 527.00,507.00 527.00,549.00 ZM 458.00 548.07 L 458.00 568.00 L 463.00 568.00 L 463.00 528.00 L 459.12 528.00 L 460.67 527.82 C465.50,527.24 464.63,525.00 459.58,525.00 L 455.00 525.00 L 455.00 546.50 C455.00,564.94 455.21,568.00 456.50,568.00 C457.78,568.00 458.00,565.12 458.00,548.07 ZM 701.78 539.17 L 702.00 530.59 L 702.00 551.00 L 708.00 551.00 L 708.00 528.00 L 705.03 528.00 C707.00,528.00 708.00,527.50 708.00,526.50 C708.00,525.39 706.83,525.00 703.50,525.00 L 699.00 525.00 L 699.00 538.08 C699.00,548.10 699.29,551.07 700.25,550.75 C701.13,550.46 701.58,547.01 701.78,539.17 ZM 319.80 534.74 C319.89,532.67 319.96,531.23 320.10,530.24 C320.01,531.27 320.00,532.79 320.00,535.00 C320.00,541.80 320.07,542.00 322.50,542.00 C324.93,542.00 325.00,541.80 325.00,535.00 C325.00,528.24 324.93,528.00 322.55,528.00 C324.06,528.00 325.00,527.43 325.00,526.50 C325.00,525.39 323.83,525.00 320.50,525.00 L 316.00 525.00 L 316.00 533.57 C316.00,541.20 316.19,542.11 317.75,541.81 C319.17,541.54 319.56,540.22 319.80,534.74 ZM 492.08 516.33 C492.50,522.27 492.50,531.45 492.50,546.32 C492.50,547.41 492.50,548.53 492.50,549.68 C492.50,532.30 492.39,522.20 492.08,516.33 ZM 626.28 596.70 C628.79,596.84 632.87,596.87 637.32,596.78 L 650.26 596.50 L 637.48 596.78 C631.52,596.91 628.29,596.95 626.28,596.70 ZM 616.86 593.93 L 615.84 597.00 L 615.81 597.00 ZM 414.85 540.88 C414.89,542.83 414.86,545.54 414.78,549.25 C414.85,546.08 414.87,543.16 414.85,540.88 Z" fill="rgb(246,52,54)"/>
<path d="M 0.00 512.00 L 0.00 0.00 L 512.00 0.00 L 1024.00 0.00 L 1024.00 512.00 L 1024.00 1024.00 L 512.00 1024.00 L 0.00 1024.00 L 0.00 512.00 ZM 515.00 692.25 C515.00,690.53 488.04,612.90 487.04,611.74 C486.67,611.32 467.95,611.09 445.44,611.24 L 404.50 611.50 L 434.00 633.57 C450.23,645.71 471.83,661.81 482.00,669.35 C492.17,676.88 503.42,685.29 507.00,688.02 C513.38,692.89 515.00,693.75 515.00,692.25 ZM 247.10 665.89 C252.27,663.09 261.45,657.97 267.50,654.52 C282.30,646.10 320.07,624.74 332.75,617.63 L 343.00 611.89 L 343.00 598.44 L 343.00 585.00 L 338.00 585.00 L 333.00 585.00 L 333.00 598.00 L 333.00 611.00 L 303.50 611.00 L 274.00 611.00 L 273.99 606.25 L 273.99 601.50 L 269.40 609.50 C263.56,619.66 237.00,669.60 237.00,670.40 C237.00,671.36 237.23,671.26 247.10,665.89 ZM 548.35 659.55 L 551.00 657.10 L 551.00 632.00 L 551.00 606.90 L 545.25 607.20 L 539.50 607.50 L 539.00 630.00 L 538.50 652.50 L 536.00 652.50 C533.77,652.50 533.47,652.03 533.19,648.25 L 532.89 644.00 L 526.94 644.00 L 521.00 644.00 L 521.03 650.25 C521.08,660.11 523.49,661.93 536.60,661.97 C544.90,662.00 545.94,661.78 548.35,659.55 ZM 585.81 657.75 L 585.50 653.50 L 576.25 653.21 L 567.00 652.92 L 567.00 646.46 L 567.00 640.00 L 574.00 640.00 L 581.00 640.00 L 581.00 635.00 L 581.00 630.00 L 574.00 630.00 L 567.00 630.00 L 567.00 623.54 L 567.00 617.08 L 576.25 616.79 L 585.50 616.50 L 585.50 612.00 L 585.50 607.50 L 570.81 607.22 L 556.12 606.95 L 555.81 633.22 C555.64,647.68 555.66,660.06 555.86,660.75 C556.12,661.68 560.06,662.00 571.16,662.00 L 586.11 662.00 L 585.81 657.75 ZM 602.00 653.00 C602.00,641.43 603.69,640.73 605.60,651.50 C605.99,653.70 606.92,656.96 607.67,658.75 C608.97,661.86 609.27,662.00 614.51,662.00 C617.53,662.00 620.00,661.66 619.99,661.25 C619.99,660.84 619.09,656.77 618.00,652.20 L 616.01 643.91 L 618.25 640.87 C620.16,638.30 620.55,636.31 620.85,627.84 C621.52,608.47 620.18,607.01 601.81,607.00 L 590.12 607.00 L 589.46 611.42 C589.10,613.85 589.05,618.46 589.36,621.67 C589.67,624.88 589.94,635.26 589.96,644.75 L 590.00 662.00 L 596.00 662.00 L 602.00 662.00 L 602.00 653.00 ZM 650.28 661.08 C654.00,659.67 655.11,655.57 654.79,644.46 L 654.50 634.51 L 646.00 631.50 L 637.50 628.49 L 637.20 622.75 L 636.90 617.00 L 639.95 617.00 C642.84,617.00 643.00,617.21 643.00,620.95 C643.00,624.65 643.22,624.95 646.37,625.54 C648.22,625.89 650.81,626.02 652.12,625.84 C654.29,625.53 654.53,624.97 654.79,619.36 C655.05,614.04 654.76,612.83 652.63,610.36 C650.32,607.67 649.63,607.48 641.22,607.16 C625.91,606.57 622.90,610.14 624.63,626.92 L 625.50 635.34 L 634.29 638.39 L 643.09 641.43 L 642.79 646.96 C642.52,652.12 642.33,652.50 640.00,652.50 C637.77,652.50 637.47,652.03 637.19,648.25 L 636.89 644.00 L 630.94 644.00 L 625.00 644.00 L 625.00 650.55 C625.00,656.16 625.35,657.44 627.45,659.55 C629.70,661.79 630.69,662.00 638.89,662.00 C643.83,662.00 648.95,661.59 650.28,661.08 ZM 689.00 657.50 L 689.00 653.00 L 680.00 653.00 L 671.00 653.00 L 671.00 646.50 L 671.00 640.00 L 676.42 640.00 C684.27,640.00 685.00,639.52 685.00,634.39 L 685.00 630.00 L 678.00 630.00 L 671.00 630.00 L 671.00 623.54 L 671.00 617.08 L 679.75 616.79 L 688.50 616.50 L 688.50 612.00 L 688.50 607.50 L 674.00 607.50 L 659.50 607.50 L 659.39 634.75 L 659.28 662.00 L 674.14 662.00 L 689.00 662.00 L 689.00 657.50 ZM 716.00 651.22 L 716.00 640.44 L 722.38 624.47 C725.89,615.69 728.43,608.14 728.02,607.69 C727.61,607.24 725.09,607.02 722.42,607.19 C718.41,607.45 717.35,607.93 716.30,610.00 C714.10,614.35 711.23,621.43 710.82,623.50 C710.56,624.81 709.11,622.33 706.57,616.25 L 702.72 607.00 L 696.86 607.00 C691.17,607.00 690.03,607.59 691.91,609.55 C692.41,610.07 693.49,612.75 694.31,615.50 C695.13,618.25 697.53,624.10 699.65,628.50 C703.41,636.30 703.51,636.81 703.83,649.25 L 704.16 662.00 L 710.08 662.00 L 716.00 662.00 L 716.00 651.22 ZM 485.94 595.09 C487.28,594.15 489.30,592.13 490.44,590.61 C492.44,587.94 492.50,586.68 492.50,549.68 C492.50,506.32 492.73,507.66 484.36,502.12 L 479.66 499.00 L 454.33 499.00 L 429.00 499.00 L 429.00 546.28 C429.00,592.22 429.06,593.60 430.99,595.26 C432.70,596.72 435.92,597.00 454.24,597.23 C479.49,597.56 482.74,597.34 485.94,595.09 ZM 319.88 596.25 C319.82,595.84 319.82,589.99 319.88,583.25 L 320.00 571.00 L 332.05 571.00 C345.63,571.00 348.81,570.00 352.04,564.70 C353.84,561.75 353.99,559.54 353.99,536.50 C353.99,508.19 353.91,507.85 345.88,502.03 L 341.70 499.00 L 316.37 499.00 L 291.04 499.00 L 290.48 501.25 C290.17,502.49 290.05,523.53 290.21,548.00 C290.49,590.64 290.58,592.59 292.47,594.75 C294.32,596.86 295.22,597.00 307.22,597.00 C314.25,597.00 319.95,596.66 319.88,596.25 ZM 423.00 584.00 C423.00,573.11 422.76,571.00 421.50,571.00 C420.67,571.00 420.00,570.33 420.00,569.50 C420.00,568.23 417.61,568.00 404.50,568.00 L 389.00 568.00 L 389.00 565.53 L 389.00 563.06 L 401.75 562.78 L 414.50 562.50 L 414.78 549.25 C415.02,537.91 414.84,536.00 413.53,536.00 C412.69,536.00 412.00,535.55 412.00,535.00 C412.00,534.39 407.50,534.00 400.50,534.00 L 389.00 534.00 L 389.00 531.00 L 389.00 528.00 L 406.00 528.00 L 423.00 528.00 L 423.00 514.50 C423.00,503.17 422.76,501.00 421.50,501.00 C420.67,501.00 420.00,500.55 420.00,500.00 C420.00,499.36 409.33,499.00 390.00,499.00 L 360.00 499.00 L 360.00 545.99 C360.00,589.01 360.15,593.15 361.72,594.99 C363.38,596.92 364.63,597.00 393.22,597.00 L 423.00 597.00 L 423.00 584.00 ZM 527.00 549.00 C527.00,507.00 526.81,501.00 525.50,501.00 C524.67,501.00 524.00,500.55 524.00,500.00 C524.00,499.38 519.00,499.00 511.00,499.00 L 498.00 499.00 L 498.00 546.50 C498.00,588.06 498.19,594.00 499.50,594.00 C500.33,594.00 501.00,594.67 501.00,595.50 C501.00,596.76 503.11,597.00 514.00,597.00 L 527.00 597.00 L 527.00 549.00 ZM 617.00 593.50 C618.13,590.07 620.00,588.71 620.00,591.33 C620.00,592.05 621.06,593.64 622.35,594.86 C624.55,596.93 625.47,597.04 637.48,596.78 L 650.26 596.50 L 658.60 573.50 L 666.95 550.50 L 666.98 525.75 C667.00,504.41 666.79,501.00 665.50,501.00 C664.67,501.00 664.00,500.55 664.00,500.00 C664.00,499.38 659.00,499.00 651.00,499.00 L 638.00 499.00 L 638.00 523.03 C638.00,542.86 637.72,547.71 636.40,550.78 C634.97,554.10 634.71,554.29 633.97,552.50 C633.51,551.40 633.11,539.55 633.07,526.16 C633.00,502.68 632.93,501.79 631.00,501.29 C629.90,501.00 629.00,500.37 629.00,499.88 C629.00,499.40 623.38,499.00 616.50,499.00 L 604.00 499.00 L 603.93 522.75 C603.86,543.43 603.62,547.02 602.04,550.50 L 600.23 554.50 L 599.12 551.68 C598.40,549.89 598.00,540.19 598.00,524.93 C598.00,504.33 597.79,501.00 596.50,501.00 C595.67,501.00 595.00,500.55 595.00,500.00 C595.00,499.38 590.00,499.00 582.00,499.00 L 569.00 499.00 L 569.00 522.51 L 569.00 546.03 L 577.37 569.36 C581.98,582.19 586.58,593.66 587.60,594.84 C589.32,596.85 590.36,597.00 602.64,597.00 L 615.84 597.00 L 617.00 593.50 ZM 702.00 588.50 L 702.00 580.00 L 705.00 580.00 L 708.00 580.00 L 708.00 586.50 C708.00,596.42 708.92,597.00 724.50,597.00 L 737.00 597.00 L 737.00 554.96 C737.00,507.29 737.14,508.22 728.84,502.11 L 724.61 499.00 L 703.75 499.00 C680.61,499.00 678.52,499.46 674.96,505.30 C673.10,508.34 673.01,510.61 673.00,550.75 C673.00,589.59 673.14,593.15 674.75,594.92 C676.29,596.60 678.02,596.84 689.25,596.92 L 702.00 597.00 L 702.00 588.50 ZM 547.32 519.41 C549.89,518.53 552.05,517.29 552.11,516.66 C552.17,516.02 552.13,508.46 552.02,499.87 C551.87,488.15 552.14,484.03 553.08,483.45 C553.78,483.02 574.96,482.74 600.16,482.82 L 645.96 482.98 L 658.23 478.60 C664.98,476.19 685.35,468.70 703.50,461.96 C721.65,455.22 746.85,445.91 759.50,441.27 C772.15,436.64 787.59,430.97 793.82,428.67 L 805.14 424.50 L 798.82 424.19 C795.34,424.02 774.05,424.59 751.50,425.45 C728.95,426.32 685.30,427.92 654.50,429.02 C623.70,430.12 587.03,431.47 573.00,432.02 C558.97,432.57 530.62,433.67 510.00,434.48 C489.38,435.29 466.36,436.24 458.86,436.60 L 445.21 437.25 L 443.67 431.87 C442.83,428.92 438.96,414.35 435.09,399.50 C431.21,384.65 426.96,368.45 425.63,363.50 C424.30,358.55 421.80,349.12 420.06,342.53 C418.32,335.95 416.76,330.43 416.59,330.26 C415.88,329.55 407.26,342.73 395.18,363.00 C387.04,376.67 346.55,441.16 345.18,442.64 C344.60,443.27 340.39,444.08 335.81,444.45 C313.64,446.22 230.77,453.70 223.23,454.60 C218.61,455.16 218.11,455.43 219.23,456.79 C219.93,457.65 229.69,466.03 240.93,475.42 C268.92,498.83 272.80,502.00 273.44,502.00 C273.75,502.00 274.00,497.57 274.00,492.15 L 274.00 482.29 L 404.25 482.52 C475.89,482.64 535.96,482.80 537.75,482.87 L 541.00 483.00 L 541.00 502.00 C541.00,512.45 541.37,521.00 541.82,521.00 C542.27,521.00 544.75,520.28 547.32,519.41 ZM 602.00 625.50 L 602.00 617.00 L 605.00 617.00 L 608.00 617.00 L 608.00 625.50 L 608.00 634.00 L 605.00 634.00 L 602.00 634.00 L 602.00 625.50 ZM 458.00 548.00 L 458.00 528.00 L 460.50 528.00 L 463.00 528.00 L 463.00 548.00 L 463.00 568.00 L 460.50 568.00 L 458.00 568.00 L 458.00 548.00 ZM 320.00 535.00 C320.00,528.20 320.07,528.00 322.50,528.00 C324.93,528.00 325.00,528.20 325.00,535.00 C325.00,541.80 324.93,542.00 322.50,542.00 C320.07,542.00 320.00,541.80 320.00,535.00 ZM 702.00 539.50 L 702.00 528.00 L 705.00 528.00 L 708.00 528.00 L 708.00 539.50 L 708.00 551.00 L 705.00 551.00 L 702.00 551.00 L 702.00 539.50 Z" fill="rgb(254,253,253)"/>
</g>
</svg>